Coordinates
version=1
nRows=16
nColumns=42
inDegrees=yes

Units are S.I. units (second, meters, Newtons, ...)
If the header above contains a line with 'inDegrees', this indicates whether rotational values are in degrees (yes) or radians (no).

endheader
time	pelvis_tilt	pelvis_list	pelvis_rotation	pelvis_tx	pelvis_ty	pelvis_tz	hip_flexion_r	hip_adduction_r	hip_rotation_r	knee_angle_r	knee_adduction_r	knee_angle_r_beta	ankle_angle_r	subtalar_angle_r	mtp_angle_r	hip_flexion_l	hip_adduction_l	hip_rotation_l	knee_angle_l	knee_adduction_l	knee_angle_l_beta	ankle_angle_l	subtalar_angle_l	mtp_angle_l	lumbar_extension	lumbar_bending	lumbar_rotation	arm_flex_r	arm_add_r	arm_rot_r	elbow_flex_r	pro_sup_r	wrist_flex_r	wrist_dev_r	arm_flex_l	arm_add_l	arm_rot_l	elbow_flex_l	pro_sup_l	wrist_flex_l	wrist_dev_l
      4.50000000	     -0.49611101	    -10.10232761	     -8.19969568	     -0.80611989	      0.82607745	      0.32086431	      4.21618874	     10.17053030	    -22.84496433	     20.71985238	     -2.17780450	      0.36162964	     22.16493260	     30.67980602	     -7.50184014	     29.61761351	    -23.29179316	    -29.05001440	     43.79198522	     -8.96561136	      0.76431433	     17.35558997	     28.23589562	     -7.50184014	    -22.86991535	     10.52148864	      1.64612177	    -11.86192341	     -4.49397288	    -11.60488889	    107.32158979	     90.00000001	      0.00000000	      0.00000000	      0.49089244	     -9.02529747	    -16.88211040	     46.53506523	     90.00000001	      0.00000000	      0.00000000
      4.51000000	     -0.58076861	    -10.21429150	     -8.38736992	     -0.80323088	      0.82581219	      0.31986778	      4.07532785	     10.23975453	    -22.66663885	     20.69523674	     -2.26646142	      0.36120002	     22.26150564	     30.68812306	     -7.50182632	     29.48896812	    -23.28334346	    -28.96406869	     43.17114847	     -8.67151604	      0.75347868	     17.32031499	     28.32932897	     -7.50182632	    -22.71105634	     10.54137049	      1.62425078	    -11.89537245	     -4.51992579	    -11.71729579	    107.28609486	     90.00000001	      0.00000000	      0.00000000	      0.36215602	     -9.05886824	    -16.94267295	     46.43360177	     90.00000001	      0.00000000	      0.00000000
      4.52000000	     -0.62022623	    -10.28803947	     -8.57607410	     -0.80030588	      0.82571010	      0.31882923	      3.86471771	     10.26486638	    -22.41456029	     20.62204583	     -2.32547449	      0.35992260	     22.43248680	     30.66179464	     -7.50181096	     29.21689415	    -23.20337941	    -28.87801973	     42.55754697	     -8.38366777	      0.74276932	     17.21948817	     28.39068089	     -7.50181096	    -22.59639880	     10.50830555	      1.60536091	    -11.89626828	     -4.48583988	    -11.85785612	    107.20453264	     90.00000001	      0.00000000	      0.00000000	      0.28768015	     -9.08877155	    -17.01281116	     46.27447094	     90.00000001	      0.00000000	      0.00000000
      4.53000000	     -0.47804578	    -10.27934326	     -8.77796945	     -0.79722061	      0.82591375	      0.31762513	      3.41569989	     10.16326929	    -21.98547824	     20.48140459	     -2.34772955	      0.35746795	     22.66420732	     30.57959052	     -7.50178478	     28.64652262	    -23.00749980	    -28.91709134	     42.01147235	     -8.16106864	      0.73323852	     17.02023445	     28.45972108	     -7.50178478	    -22.65215013	     10.37122495	      1.60582982	    -11.89935095	     -4.42128567	    -12.05771986	    107.06256035	     90.00000001	      0.00000000	      0.00000000	      0.29034527	     -9.11659381	    -17.13955832	     46.01400104	     90.00000001	      0.00000000	      0.00000000
      4.54000000	     -0.23578585	    -10.27404794	     -9.02564050	     -0.79397351	      0.82635836	      0.31644062	      2.81910548	     10.01830412	    -21.52096208	     20.34432565	     -2.28703695	      0.35507547	     22.78332265	     30.32866893	     -7.50173231	     27.88776047	    -22.79643075	    -29.16333050	     41.47317145	     -8.10644270	      0.72384339	     16.85858495	     28.50793999	     -7.50173231	    -22.80467029	     10.19477065	      1.63360682	    -11.89545997	     -4.37256857	    -12.21946012	    106.96671465	     90.00000001	      0.00000000	      0.00000000	      0.26144720	     -9.14397647	    -17.30939148	     45.77551495	     90.00000001	      0.00000000	      0.00000000
      4.55000000	     -0.32161173	    -10.36763362	     -9.20181672	     -0.79080996	      0.82625259	      0.31511235	      2.68409737	     10.02466631	    -21.42749611	     20.38562683	     -2.36723381	      0.35579631	     22.78152357	     30.28841790	     -7.50172795	     27.73888740	    -22.70966613	    -29.04733823	     41.39435098	     -8.11461374	      0.72246772	     16.84104943	     28.48632448	     -7.50172795	    -22.59660222	     10.24286032	      1.58681713	    -11.96559724	     -4.37282036	    -12.26413478	    106.94732394	     90.00000001	      0.00000000	      0.00000000	      0.10796462	     -9.14204119	    -17.32086887	     45.72211159	     90.00000001	      0.00000000	      0.00000000
      4.56000000	     -0.27277433	    -10.30397128	     -9.47170963	     -0.78770634	      0.82665770	      0.31388353	      2.36073593	      9.96055740	    -20.91312296	     20.21799476	     -2.56504941	      0.35287058	     22.95773094	     30.17726572	     -7.50170995	     27.10712397	    -22.38524479	    -28.85080613	     40.83001759	     -7.87261018	      0.71261824	     16.82732007	     28.43538538	     -7.50170995	    -22.52890707	     10.03672424	      1.59878409	    -11.94796058	     -4.24397006	    -12.38383244	    106.78569203	     90.00000001	      0.00000000	      0.00000000	      0.08036123	     -9.20430643	    -17.38579374	     45.52921674	     90.00000001	      0.00000000	      0.00000000
      4.57000000	      0.00372317	    -10.20479994	     -9.74449906	     -0.78442145	      0.82743998	      0.31253932	      1.75706671	      9.71538297	    -20.36935458	     20.09334794	     -2.53207811	      0.35069508	     23.03979058	     29.86427266	     -7.50168378	     26.23567683	    -22.03075981	    -28.81056025	     40.47947732	     -7.69417710	      0.70650016	     16.76850859	     28.18606588	     -7.50168378	    -22.68996436	      9.75475106	      1.62876574	    -11.92682015	     -4.12876843	    -12.47549596	    106.63680223	     90.00000001	      0.00000000	      0.00000000	      0.08245698	     -9.24631135	    -17.46574329	     45.28774116	     90.00000001	      0.00000000	      0.00000000
      4.58000000	     -0.03968135	    -10.26267761	     -9.94390412	     -0.78109537	      0.82768696	      0.31108004	      1.56515445	      9.67766637	    -20.24170528	     20.14320630	     -2.61850494	      0.35156527	     23.00376880	     29.77776609	     -7.50167835	     25.96435175	    -21.87875572	    -28.64293541	     40.47489562	     -7.74369136	      0.70642019	     16.74402492	     28.12878748	     -7.50167835	    -22.49142116	      9.76374309	      1.62619802	    -12.01300591	     -4.10183434	    -12.48591666	    106.60839407	     90.00000001	      0.00000000	      0.00000000	     -0.06379426	     -9.25458644	    -17.48409701	     45.22906292	     90.00000001	      0.00000000	      0.00000000
      4.59000000	      0.17244743	    -10.07617064	    -10.25427298	     -0.77798293	      0.82862727	      0.30968951	      1.12233625	      9.43296913	    -19.69425979	     20.06325151	     -2.82094549	      0.35016980	     22.92062931	     29.43605426	     -7.50166128	     25.08841565	    -21.42922150	    -28.35424440	     40.05690097	     -7.33407237	      0.69912481	     16.83472264	     27.82129300	     -7.50166128	    -22.59478618	      9.38808573	      1.63670220	    -12.00041183	     -3.96009898	    -12.44682599	    106.48417469	     90.00000001	      0.00000000	      0.00000000	     -0.02712230	     -9.34692285	    -17.53563504	     45.06780880	     90.00000001	      0.00000000	      0.00000000
      4.60000000	      0.10058452	    -10.14737475	    -10.45521328	     -0.77469037	      0.82908643	      0.30811435	      0.96201453	      9.38533846	    -19.63200059	     20.11907375	     -2.84204538	      0.35114408	     22.88050976	     29.35510836	     -7.50165786	     24.84553602	    -21.31226140	    -28.19570557	     40.09542166	     -7.38908611	      0.69979712	     16.80836993	     27.75771390	     -7.50165786	    -22.36415010	      9.43147530	      1.65198280	    -12.02696124	     -3.93160115	    -12.43861250	    106.46067712	     90.00000001	      0.00000000	      0.00000000	     -0.11648273	     -9.33361418	    -17.53724139	     45.04152295	     90.00000001	      0.00000000	      0.00000000
      4.61000000	      0.92454814	     -9.81302749	    -10.79245921	     -0.77129774	      0.83128142	      0.30647597	     -0.26187849	      8.70601449	    -18.70558993	     19.93873784	     -2.57268399	      0.34799662	     22.43809074	     28.04917896	     -7.50160939	     22.99671610	    -20.54786387	    -28.02269655	     39.33130916	     -6.75178115	      0.68646084	     16.77898481	     26.27673905	     -7.50160939	    -23.10773276	      8.76598678	      1.70325929	    -11.94206655	     -3.79410290	    -12.36230385	    106.25910787	     90.00000001	      0.00000000	      0.00000000	      0.01111889	     -9.42805369	    -17.62188526	     44.78332165	     90.00000001	      0.00000000	      0.00000000
      4.62000000	      0.83248650	     -9.86195900	    -11.00273958	     -0.76809207	      0.83195609	      0.30482013	     -0.36626265	      8.67368985	    -18.63311736	     20.00222132	     -2.66972812	      0.34910462	     22.36261446	     27.96023666	     -7.50160513	     22.75206358	    -20.41724426	    -27.84754227	     39.33376923	     -6.72473756	      0.68650378	     16.76975719	     26.23497369	     -7.50160513	    -22.86914988	      8.79754962	      1.71271871	    -12.00615866	     -3.72674257	    -12.31306174	    106.24955077	     90.00000001	      0.00000000	      0.00000000	     -0.08299102	     -9.42160166	    -17.62373290	     44.76276153	     90.00000001	      0.00000000	      0.00000000
      4.63000000	      0.92217396	     -9.67538828	    -11.35953611	     -0.76500217	      0.83316280	      0.30349666	     -0.56131658	      8.45801902	    -18.34809958	     20.13743826	     -3.00147649	      0.35146460	     21.89444687	     27.50901504	     -7.50159152	     21.91243934	    -20.10145579	    -27.52101373	     38.82620757	     -6.00236892	      0.67764516	     16.96438087	     25.93775389	     -7.50159152	    -22.80591359	      8.43775421	      1.76232185	    -12.08649588	     -3.63206054	    -12.06657041	    106.25315312	     90.00000001	      0.00000000	      0.00000000	     -0.09711547	     -9.54849874	    -17.65365074	     44.69134955	     90.00000001	      0.00000000	      0.00000000
      4.64000000	      1.27082227	     -9.52873118	    -11.66961730	     -0.76185010	      0.83488728	      0.30175943	     -1.08655233	      8.02427126	    -18.05487121	     20.29340591	     -2.88044094	      0.35418675	     21.23153485	     26.71442378	     -7.50157083	     20.75182238	    -19.67554786	    -27.40526483	     38.20656216	     -5.47138043	      0.66683031	     17.09365193	     25.20369060	     -7.50157083	    -23.06146098	      8.13333162	      1.84300720	    -12.04400825	     -3.60403220	    -11.84933038	    106.17232093	     90.00000001	      0.00000000	      0.00000000	     -0.05403154	     -9.59489366	    -17.66103108	     44.61705407	     90.00000001	      0.00000000	      0.00000000
      4.65000000	      1.77744484	     -9.34837448	    -11.89758897	     -0.75866280	      0.83689374	      0.29985571	     -1.89056495	      7.55575470	    -17.46813244	     20.18877363	     -2.67419094	      0.35236057	     20.63022273	     25.44116881	     -7.50152159	     19.47984851	    -19.09986904	    -27.53503251	     37.56942629	     -5.23131941	      0.65571019	     16.82004691	     24.23986859	     -7.50152159	    -23.46371149	      7.77312633	      1.85844880	    -11.97874224	     -3.52843326	    -11.72850694	    106.13289305	     90.00000001	      0.00000000	      0.00000000	      0.02666054	     -9.65481976	    -17.68087079	     44.61392307	     90.00000001	      0.00000000	      0.00000000
